<?xml version="1.0" encoding="UTF-8"?>
<svg id="Layer_1" data-name="Layer 1" xmlns="http://www.w3.org/2000/svg" viewBox="0 0 614.298 444.828">
  <defs>
    <style>
      .cls-1 {
        fill: #0c3a5e;
      }

      .cls-1, .cls-2, .cls-3 {
        stroke-width: 0px;
      }

      .cls-2 {
        fill: #126ead;
      }

      .cls-3 {
        fill: #fff;
      }
    </style>
  </defs>
  <rect class="cls-3" x="8.755" width="605.543" height="444.828"/>
  <polygon class="cls-1" points="0 393.426 25.532 398.532 60.255 421 24.511 421 0 393.426"/>
  <polygon class="cls-1" points="131.149 421 144.936 413.17 177.617 413.17 131.149 421"/>
  <polygon class="cls-1" points="238.383 427.468 278.723 438.702 305.787 429.511 238.383 427.468"/>
  <polygon class="cls-1" points="352.766 424.915 384.426 413.17 424.766 413.17 352.766 424.915"/>
  <polygon class="cls-1" points="448.255 424.915 491.149 433.085 518.723 424.915 505.447 421 448.255 424.915"/>
  <polygon class="cls-1" points="43.254 308.719 68.575 342.363 65.773 296.42 41.779 253.898 43.254 308.719"/>
  <polygon class="cls-1" points="521.787 170.106 540.17 184.66 579.234 188.489 544.766 170.106 521.787 170.106"/>
  <polygon class="cls-1" points="448.255 125.681 488.085 121.085 518.723 131.809 448.255 125.681"/>
  <polygon class="cls-2" points="477.362 162.447 494.979 158.617 509.532 162.447 483.489 166.277 477.362 162.447"/>
  <polygon class="cls-2" points="36.034 339.383 32.204 365.426 51.353 393.426 47.608 359.553 36.034 339.383"/>
  <polygon class="cls-2" points="23.479 206.106 8.755 252.83 23.479 268.149 33.053 228.574 23.479 206.106"/>
  <polygon class="cls-2" points="86.723 433.085 98.979 433.085 108.085 427.043 86.723 433.085"/>
  <polygon class="cls-2" points="89.021 382.362 97.404 401.085 113.872 407.213 89.021 382.362"/>
  <polygon class="cls-2" points="184.851 427.043 196.085 421 219.915 424.021 184.851 427.043"/>
  <polygon class="cls-2" points="285.957 409.681 297.191 403.213 323.064 403.213 285.957 409.681"/>
  <polyline class="cls-2" points="397.617 429.426 407.83 427.043 430.979 433.085"/>
  <polygon class="cls-2" points="539.915 198.872 577.702 205.34 599.83 238.702 554.553 218.787 539.915 198.872"/>
  <polygon class="cls-2" points="127.83 427.468 158.809 438.702 184.851 433.085 156.34 427.043 127.83 427.468"/>
  <polygon class="cls-2" points="121.021 382.362 144 386.447 166.979 394.787 121.021 382.362"/>
  <polygon class="cls-2" points="311.809 421 331.66 424.021 347.489 434.191 325.787 430.064 311.809 421"/>
</svg>